<svg id="Layer_1" data-name="Layer 1" xmlns="http://www.w3.org/2000/svg" viewBox="0 0 126.9 71.79"><defs><style>.cls-1,.cls-3,.cls-4{fill:none;stroke-linecap:round;stroke-linejoin:round;}.cls-1,.cls-2,.cls-3{stroke:#003671;}.cls-1,.cls-2{stroke-width:2px;}.cls-2{fill:#fff;stroke-miterlimit:10;}.cls-3,.cls-4{stroke-width:3px;}.cls-4{stroke:#7ab929;}.cls-5{fill:#7ab929;}.cls-6{fill:#003671;}</style></defs><line class="cls-1" x1="79.46" y1="49.28" x2="90.74" y2="49.28"/><path class="cls-1" d="M365.29,302.56l0-29.39,50.05.08,0,25.05a4.25,4.25,0,0,1-4.25,4.24Z" transform="translate(-339.07 -239.45)"/><polyline class="cls-1" points="89.44 62.88 91.93 62.89 91.94 52.06 86.88 39.33 79.48 39.32"/><path class="cls-1" d="M418.53,288.73" transform="translate(-339.07 -239.45)"/><path class="cls-1" d="M400.73,301.14" transform="translate(-339.07 -239.45)"/><path class="cls-1" d="M365.87,301.14" transform="translate(-339.07 -239.45)"/><path class="cls-2" d="M381.56,304a5.18,5.18,0,1,1-5.18-5.19A5.17,5.17,0,0,1,381.56,304Z" transform="translate(-339.07 -239.45)"/><path class="cls-2" d="M428.07,304a5.18,5.18,0,1,1-5.17-5.18A5.18,5.18,0,0,1,428.07,304Z" transform="translate(-339.07 -239.45)"/><line class="cls-3" x1="10.24" y1="70.29" x2="125.4" y2="70.29"/><path class="cls-4" d="M452.17,302.43a55.8,55.8,0,1,0-111.6,0" transform="translate(-339.07 -239.45)"/><path class="cls-3" d="M463.52,302.43a61.48,61.48,0,1,0-122.95,0v7.31" transform="translate(-339.07 -239.45)"/><path class="cls-5" d="M395.41,285.89c.31,1.22-1.43,2.69-3.86,3.29s-4.66.1-5-1.12,1.44-2.69,3.87-3.29,4.66-.1,5,1.12" transform="translate(-339.07 -239.45)"/><path class="cls-6" d="M383.55,287.12,377,291.41l8.41-.46a3.23,3.23,0,0,1-2.1-2.07,2.67,2.67,0,0,1,.22-1.76" transform="translate(-339.07 -239.45)"/><path class="cls-6" d="M398.13,284.36l2-5.22-8.09,3.44c2.77-.24,5.12.44,6.05,1.78" transform="translate(-339.07 -239.45)"/><path class="cls-6" d="M389.91,282.93c.29-.07.59-.13.89-.18l-7.57-1.28.95,4.68a10.89,10.89,0,0,1,5.73-3.22" transform="translate(-339.07 -239.45)"/><path class="cls-6" d="M394.45,290.21a13.46,13.46,0,0,1-2.53.89,12.29,12.29,0,0,1-5.13.24l3.33,3.88Z" transform="translate(-339.07 -239.45)"/><path class="cls-6" d="M395.68,289.55l8.74-1.92-6-2.68c0,.07.05.13.07.2.36,1.48-.79,3.14-2.81,4.4" transform="translate(-339.07 -239.45)"/></svg>