<svg width="56" height="56" viewBox="0 0 56 56" fill="none" xmlns="http://www.w3.org/2000/svg">
<path d="M11.767 17.5L19.0724 5.90796L19.4547 3.25146H9.02999L8.64762 6.02871H15.6914L8.24512 17.5H11.767Z" stroke="#74BF43" stroke-width="1.5"/>
<path fill-rule="evenodd" clip-rule="evenodd" d="M41.5859 0C41.87 0 42.1202 0.152173 42.2446 0.39332L42.2852 0.487797L42.4406 0.932686C42.52 1.16274 42.4792 1.41691 42.3374 1.60933L42.2704 1.68776L41.258 2.71025L40.9902 5.85588L41.862 6.73709C41.9795 6.85576 42.0513 7.00975 42.069 7.17108L42.0731 7.26853L42.0638 7.3664L41.6727 9.87912L42.4527 12.0687C42.488 12.1642 42.502 12.2659 42.4952 12.3654L42.4816 12.4638L42.4542 12.5588L42.0175 13.8175L42.4751 16.2894L43.155 17.1476C43.3114 17.3507 43.3478 17.6158 43.2634 17.8473L43.2198 17.9442L43.1614 18.0353L40.1369 22.0609C40.0242 22.2115 39.8592 22.3112 39.6772 22.3412L39.585 22.3503L37.7002 22.4223L36.3077 22.9196C36.2809 22.9294 36.2425 22.939 36.2025 22.9466L36.1425 22.9563L36.0643 22.9625C35.9323 22.9625 35.8026 22.9258 35.691 22.8582L35.6108 22.8018L34.2775 21.7252C34.1504 21.6218 34.0619 21.4778 34.0251 21.3165L34.0093 21.2178L33.7518 17.9417C33.739 17.7805 33.779 17.6226 33.8654 17.4883L33.9228 17.4107L35.7559 15.2565L37.2592 13.3993L36.4796 11.7131L35.3088 11.9564L34.4968 13.7291L34.2512 15.5818C34.2348 15.7109 34.1848 15.8311 34.1077 15.9314L34.045 16.0028L33.9728 16.0658L31.2707 18.1479L30.4045 22.1799L31.3333 22.0669C31.498 22.0663 31.6444 22.1016 31.7657 22.1735L31.852 22.2343L31.9282 22.3089C32.0422 22.438 32.1061 22.6031 32.1106 22.7735L32.1061 22.8761L32.0276 23.5602C31.9991 23.8227 31.8282 24.0484 31.5889 24.1507L31.4961 24.1831L30.4088 24.4767L30.0264 29.034C30.0103 29.2222 29.9241 29.3928 29.788 29.5152L29.7159 29.5722L29.636 29.6203L27.922 30.5066C27.8201 30.5613 27.7041 30.5906 27.5882 30.5906C27.3249 30.5906 27.0868 30.4486 26.9594 30.2243L26.917 30.1365L24.5988 24.4365L24.1874 25.5115C24.104 25.7289 23.9223 25.8902 23.7051 25.9512L23.61 25.971L23.5117 25.9778H21.1896C20.9623 25.9778 20.7513 25.8724 20.6123 25.6903C20.4947 25.5352 20.4452 25.343 20.4706 25.1534L20.4896 25.0589L21.546 21.0975L20.968 21.295L20.9235 21.3069L20.814 21.326L20.7413 21.3314C20.4456 21.3314 20.1832 21.1507 20.0724 20.8825L20.0412 20.79L19.8418 20.0407C19.7872 19.8389 19.8218 19.625 19.934 19.452L19.9966 19.3692L22.2927 16.75C22.3409 16.6942 22.3981 16.6461 22.4623 16.607L22.5635 16.5553L24.591 15.7259L24.5374 15.6406L24.4937 15.5443L24.3001 15.0124C24.1896 14.7046 24.2971 14.3627 24.5543 14.1732L24.6359 14.1212L25.3741 13.7204L28.0708 8.04548L28.1022 7.98905L28.1231 7.95518L30.8622 3.95795C30.8996 3.902 30.9464 3.85076 30.9996 3.80665L31.0841 3.74612L33.9067 2.01253L37.1909 0.237185C37.2553 0.201802 37.3258 0.176546 37.3986 0.162386L37.5089 0.149588L41.5859 0ZM40.5082 24.2685C40.4523 24.0103 40.2217 23.8265 39.9561 23.8265H37.4071L37.2924 23.8327C36.9151 23.8737 36.5891 24.1157 36.4434 24.4716L36.1713 25.1457L36.1308 25.2672L36.1059 25.3914C36.0774 25.6 36.1139 25.8142 36.2139 26.0051L36.7517 27.0317L36.3212 27.7318L35.9176 27.3899L35.8199 27.3162C35.6505 27.2035 35.45 27.1423 35.2449 27.1423C34.7642 27.1423 34.3481 27.4652 34.2337 27.929L33.6284 30.3938L33.0636 32.0805H31.9226L31.8495 31.8422L31.8159 31.7588C31.6976 31.5207 31.4283 31.3949 31.1642 31.4625L29.0219 32.0409L28.9096 32.0786L28.8036 32.1279C28.5984 32.2374 28.4353 32.4123 28.3413 32.6291L27.8932 33.666L27.4073 32.6855L27.3489 32.5834C27.1583 32.2893 26.8324 32.1099 26.4759 32.1099L26.4375 32.1114L24.71 32.2704L24.087 31.3604L24.7552 29.7511L24.793 29.6448C24.8247 29.5362 24.8383 29.4214 24.8331 29.3056L24.7579 27.9611L24.7466 27.8583C24.6421 27.2188 23.9224 26.8073 23.3087 27.0727L22.7344 27.3169L22.6263 27.3711C22.3828 27.5113 22.2037 27.7461 22.136 28.02L21.7515 29.5911L21.7301 29.7049C21.7103 29.8576 21.7256 30.0132 21.7754 30.1603L22.4932 32.2983L22.862 33.1786L21.8187 33.6006C21.8197 33.5991 21.8142 33.5986 21.7989 33.5979L21.3393 33.4931L21.2231 33.475L21.107 33.4701C20.7599 33.4747 20.4286 33.6514 20.2382 33.9497L18.4345 36.7915L17.0979 37.264L16.9902 37.3093L16.8891 37.3655C16.7915 37.4269 16.705 37.5038 16.633 37.5939L15.1217 39.4786L14.7752 39.4019L14.6638 39.3855L14.5537 39.3812C14.1169 39.3871 13.7277 39.6699 13.5758 40.1083L13.5616 40.1559L13.0404 40.2066L12.9278 40.2233C12.5229 40.3053 12.21 40.6105 12.1237 41.0216L12.1061 41.1336L12.1007 41.2446C12.1025 41.6118 12.301 41.949 12.6384 42.1343L13.1565 42.4169L14.5311 45.1285L13.7576 46.9362L8.23811 46.9369L8.13222 46.9422C7.60979 46.9949 7.19974 47.4335 7.19974 47.9671V54.0092L7.20512 54.1145L7.22091 54.2168C7.31805 54.6859 7.73788 55.0389 8.23811 55.0389L9.36947 55.0387L9.48522 55.233L9.55296 55.3325C9.74793 55.5856 10.0539 55.7375 10.379 55.7375L10.5029 55.7302L10.6254 55.7085C10.7061 55.6895 10.7849 55.6613 10.8594 55.6246L11.4467 55.3118L13.2191 55.2795L13.3309 55.2713C13.5892 55.2385 13.8268 55.1106 13.9954 54.9108L15.3653 53.2847L15.4303 53.1995L15.486 53.1075C15.5199 53.0442 15.5472 52.9769 15.5674 52.9069L16.2216 50.6261L17.8778 49.729L17.9745 49.669L18.0632 49.5999C18.2604 49.4284 18.3874 49.1878 18.4137 48.9235L18.5045 47.9819L20.6872 47.6028L20.7976 47.577L20.924 47.5315C21.0875 47.4608 21.2301 47.3498 21.3385 47.2063L21.7166 46.707L21.728 46.7089L21.9583 46.7731L22.0713 46.7933L22.1855 46.8007C22.4143 46.803 22.6427 46.7302 22.8273 46.5914L23.2225 46.2923L24.2436 46.6869L24.4741 47.9628L24.5015 48.0764C24.5578 48.2625 24.6666 48.4307 24.815 48.5597L26.1575 49.7114L26.2225 49.7626L26.2546 49.785L28.7253 51.3305L28.9434 52.3389L28.9388 52.6736L27.2068 53.0749L27.1179 53.1015C26.9749 53.1544 26.8595 53.2495 26.8045 53.3869C26.723 53.5984 26.8148 53.8047 26.9956 53.9211L27.696 54.3744L27.7844 54.4217C27.8774 54.4623 27.9832 54.4829 28.0903 54.4829H29.1657L29.2632 54.4773L29.3471 54.4631C29.5667 54.4139 29.7461 54.2732 29.7768 54.0515L29.8007 53.8636L29.8592 53.8243L29.9217 53.7655L29.9753 53.6969L30.6407 52.6767L30.6988 52.5769L30.7447 52.4723C30.8244 52.259 30.8302 52.0228 30.7579 51.7992L30.7256 51.7024L30.8034 51.7444L30.889 51.7825C30.9482 51.8028 31.0111 51.813 31.0748 51.813L31.1705 51.8069C31.443 51.7668 31.6532 51.5336 31.6532 51.2509L31.6455 51.1582L31.6231 51.0693C31.6034 51.0116 31.5745 50.9576 31.5375 50.9093L31.5175 50.8877L30.8848 49.8025L30.8211 49.7057C30.729 49.5819 30.6097 49.4793 30.4713 49.4065L29.1818 48.73L28.2056 47.9932L26.6376 45.3315L27.2606 44.4539L28.6829 46.4763L29.1127 47.1134L29.1779 47.2006L29.2518 47.28C29.4077 47.4303 29.6105 47.5301 29.8304 47.5609L30.8367 47.7028L32.1991 48.8306L32.1993 50.6458L32.2062 50.765C32.2248 50.9227 32.2801 51.0747 32.3685 51.2082L33.5828 53.0667L33.6589 53.1685L33.7461 53.2596C33.8385 53.345 33.9462 53.4132 34.0649 53.4609L34.2098 53.518L34.1869 53.5775C34.0948 53.8581 34.1281 54.1666 34.2825 54.4239L34.4144 54.6432L34.4828 54.7432C34.6797 54.9972 34.9889 55.1463 35.3327 55.1463L35.525 55.1388L35.647 55.1273C35.9277 55.0845 36.1778 54.9302 36.342 54.6937L36.4063 54.5891L36.4571 54.4792C36.545 54.2551 36.5507 54.0062 36.4687 53.7714L35.9651 52.3315L36.0255 50.8134L37.492 50.1991L37.6339 50.2721L37.7335 50.3165L37.8358 50.3493C38.3184 50.476 38.8613 50.2361 39.0654 49.7679L39.2455 49.3548L39.7679 49.2854L39.8868 49.2625C40.1589 49.1937 40.3907 49.0197 40.5321 48.7737L40.5864 48.6657L40.6271 48.5537C40.695 48.3264 40.6814 48.0813 40.5842 47.8569L40.5746 47.8358L42.3552 43.9683L43.9915 43.6375L44.6075 43.9L44.5472 44.0157C44.4291 44.2803 44.4271 44.587 44.5508 44.8589L44.7676 45.3336L44.8189 45.4311C45.1007 45.8999 45.7492 46.0796 46.2342 45.8006L46.9907 45.3657L47.0855 45.304C47.2975 45.1491 47.4432 44.9193 47.4917 44.6584L47.5058 44.5455L47.5074 44.4329C47.4983 44.2088 47.4161 43.9925 47.2697 43.8169L47.1791 43.7084L50.6011 41.398L50.6917 41.3292C50.9216 41.1339 51.0562 40.8488 51.0562 40.5452V39.8478L51.0503 39.7375L51.0305 39.6195C50.9511 39.2719 50.6933 38.9842 50.3408 38.8694L47.4031 37.9106L46.1055 36.7127L45.963 35.8132L45.9404 35.7073L45.9076 35.6061C45.7569 35.2117 45.3758 34.9431 44.9357 34.9431L43.7071 34.9426L43.5732 34.3564L43.7524 34.3034L43.8698 34.2609C44.1729 34.1305 44.3941 33.8669 44.4671 33.5392L44.4868 33.4166L44.4918 33.2945C44.4865 33.0112 44.3637 32.7414 44.1434 32.5468L43.1436 31.6649L43.0946 30.7096L43.0834 30.6022L43.0615 30.4981C42.962 30.1237 42.6561 29.8297 42.2628 29.7514L40.4608 29.389L40.3285 26.611L40.317 26.5033L40.295 26.3993L40.2628 26.2996L39.8046 25.0744L40.1898 24.9019L40.2666 24.8598C40.4601 24.7337 40.5595 24.4998 40.5082 24.2685ZM37.4701 24.9492H38.6557L38.6522 25.035C38.6536 25.1511 38.6749 25.2678 38.7169 25.3799L39.2026 26.6809L39.3384 29.5138L39.3492 29.6214C39.4144 30.0456 39.7391 30.3892 40.1693 30.4752L41.9711 30.838L42.0186 31.7602L42.0311 31.8767C42.0696 32.1074 42.1881 32.3227 42.3665 32.4792L43.267 33.2722L43.1663 33.3035L43.065 33.3396C42.606 33.5305 42.3406 34.0282 42.4537 34.5198L42.6258 35.2668L42.6562 35.3727C42.799 35.7855 43.1902 36.066 43.638 36.066L44.8603 36.0653L44.9962 36.9195L45.0208 37.031C45.072 37.2138 45.1733 37.3808 45.3131 37.5112L46.6516 38.7473L46.738 38.8192C46.8279 38.8861 46.9279 38.938 47.0359 38.9729L49.9275 39.9144V40.4927L45.6671 43.3706L45.6136 43.2812C45.5043 43.1202 45.3498 42.9914 45.1644 42.911L44.4066 42.588L44.2863 42.545C44.1233 42.4977 43.9512 42.4907 43.7832 42.526L42.0835 42.875L41.9654 42.906C41.6956 42.9945 41.4701 43.1937 41.3491 43.4556L39.5302 47.4052L39.4852 47.5202C39.4221 47.7154 39.4196 47.9261 39.4777 48.1236L39.4992 48.1849L39.0455 48.2457L38.9268 48.2691C38.6165 48.3484 38.3613 48.5619 38.2324 48.8577L38.0695 49.227L37.9792 49.1808L37.8601 49.1284C37.6161 49.0393 37.3417 49.0439 37.0975 49.1446L35.5342 49.7986L35.4272 49.8513C35.1177 50.0265 34.9153 50.3503 34.9004 50.7079L34.837 52.3048L34.8396 52.4346C34.8432 52.4774 34.8494 52.5198 34.8591 52.5634L34.517 52.4269L33.3296 50.6147L33.3297 48.7864L33.3234 48.6721C33.294 48.4081 33.1632 48.1655 32.9551 47.9943L31.5392 46.8215L31.4449 46.7524C31.3151 46.6676 31.1695 46.6126 31.0175 46.5921L30.0265 46.4515L28.1121 43.7046L28.0372 43.6111C27.6117 43.1436 26.7831 43.1731 26.4101 43.7004L25.6765 44.7334L25.6128 44.8351C25.4413 45.1487 25.4443 45.5331 25.6277 45.8462L27.2364 48.5768L27.3125 48.6888C27.3677 48.7596 27.432 48.8229 27.5051 48.8788L28.5403 49.6552L28.6116 49.7037C28.6359 49.7187 28.6607 49.7327 28.6859 49.7456L29.89 50.3741L29.6847 50.4559L29.6059 50.4944L29.54 50.5395L29.4554 50.4643C29.4247 50.4399 29.3925 50.4172 29.359 50.3964L26.8587 48.8303L25.5806 47.7272L25.3484 46.4348L25.3205 46.3193C25.2285 46.0175 25.0001 45.7691 24.701 45.655L23.5847 45.223L23.4721 45.1873C23.1677 45.1099 22.8333 45.1735 22.5807 45.3633L22.1733 45.6693L21.9154 45.6039L21.7959 45.5823C21.4359 45.5397 21.0656 45.6946 20.8446 45.988L20.4566 46.497L18.2407 46.8829L18.137 46.9064C17.7306 47.021 17.4278 47.3748 17.3868 47.7995L17.2917 48.7606L15.6459 49.6532L15.5446 49.7168C15.3508 49.8539 15.2112 50.0482 15.146 50.2753L14.4873 52.5721L13.1565 54.1515L11.405 54.1845L11.2824 54.1945C11.1612 54.2113 11.0445 54.2482 10.9372 54.3042L10.4116 54.582L10.3153 54.4201L10.2474 54.3202C10.0521 54.0665 9.74604 53.9142 9.4211 53.9142L8.32997 53.9135V48.0615L8.54435 48.058L13.8236 48.0586L13.9361 48.0525C14.307 48.0126 14.6314 47.7774 14.78 47.4299L15.5939 45.5252L15.6373 45.4042C15.7084 45.1584 15.6841 44.8918 15.5657 44.659L14.1572 41.8794L14.0938 41.7709C14.0012 41.6322 13.8764 41.5182 13.7291 41.4388L13.461 41.2925L13.737 41.2663L13.8477 41.2494C14.2095 41.1744 14.4974 40.9137 14.6252 40.545L14.6343 40.512L14.9562 40.5839L15.0715 40.6006C15.4174 40.6314 15.7595 40.4881 15.9787 40.215L17.5043 38.3122L18.8485 37.8385L18.9552 37.7938C19.1281 37.7097 19.2754 37.5791 19.3792 37.4166L21.168 34.5952L21.614 34.7009L21.7385 34.7201C21.9053 34.7357 22.0744 34.7116 22.2297 34.6488L23.3817 34.1824L23.4885 34.1325C23.695 34.0214 23.8568 33.8442 23.9484 33.6249L23.9878 33.5143C24.0097 33.4395 24.0228 33.363 24.0272 33.2861L24.0266 33.1786L24.042 33.1914C24.2203 33.3251 24.4399 33.3999 24.6694 33.3999L24.7049 33.3989L26.425 33.2399L26.9702 34.3409L27.0283 34.4431C27.2183 34.7371 27.5443 34.9167 27.9011 34.9167L28.0143 34.9108C28.3866 34.8716 28.7053 34.6406 28.8562 34.2924L29.3641 33.1139L30.954 32.6842L31.0117 32.7741C31.2028 33.0407 31.5139 33.2057 31.8576 33.2057H33.1309L33.2417 33.1999C33.6432 33.1575 33.9874 32.8869 34.1163 32.4997L34.7194 30.6957L35.2983 28.339L35.6717 28.6553L35.7634 28.7241C36.2373 29.0379 36.9281 28.9011 37.2324 28.4098L37.7479 27.5715L37.8045 27.4664C37.9382 27.1791 37.932 26.8411 37.7819 26.5581L37.2391 25.5206L37.4701 24.9492ZM45.6776 44.3218L45.6405 44.3915L45.605 44.4416L45.7563 44.775L46.3277 44.446L46.2945 44.4066L45.9729 44.4073C45.88 44.4073 45.7913 44.385 45.7127 44.3445L45.6776 44.3218ZM13.4953 25.3036C13.4018 25.1224 13.2168 25.008 13.0136 25.008H12.1654L12.0694 25.0155L11.9597 25.0426C11.7845 25.0992 11.6484 25.2107 11.5625 25.3598L10.5538 27.1173L10.5048 27.2244L10.4766 27.3317L10.4629 27.4366C10.4542 27.5745 10.4832 27.7042 10.5458 27.8195L11.6698 29.8589L11.6021 30.9946L11.605 31.1073L11.6234 31.2069C11.6541 31.3337 11.7098 31.4368 11.7881 31.5219C11.9179 31.665 12.1045 31.7487 12.2984 31.7487L12.3695 31.7435L12.4237 31.7354C12.4599 31.729 12.4947 31.7209 12.5194 31.7126L12.8047 31.6133L12.9718 33.4263L11.8007 34.8553L11.7349 34.9517L11.6885 35.0545C11.6241 35.226 11.6234 35.3977 11.68 35.5552L11.7175 35.642L11.7655 35.7221L11.8232 35.7945L11.8571 35.8264L11.27 36.8737L11.2145 36.9279C11.1037 37.051 11.0558 37.1954 11.0672 37.3434C11.0847 37.5674 11.2349 37.7592 11.4481 37.8273L12.4564 38.1395L12.5202 38.1539L12.6191 38.1675L12.6588 38.1694L12.7546 38.1626L12.848 38.1428C12.9702 38.108 13.0824 38.0399 13.1717 37.945L13.7042 37.3506L15.7556 37.1881L15.8563 37.1715L15.9662 37.1338C16.1046 37.0752 16.2104 36.9841 16.2851 36.8668L17.2333 35.3903L17.285 35.2917L17.3167 35.1991C17.3511 35.0778 17.3545 34.9645 17.3319 34.8552L17.2044 34.2437L17.1756 34.1466L17.1346 34.062L17.0803 33.9783C16.8838 33.7145 16.5397 33.6074 16.242 33.7407L16.1665 33.7745L16.1218 33.6774L15.9535 31.8821L15.9371 31.7872L15.9088 31.6956C15.8883 31.6397 15.8641 31.5932 15.835 31.55L14.5441 29.6239L14.492 29.5569L14.4515 29.515L14.2756 28.276L14.2936 28.2356C14.314 28.1807 14.3258 28.1307 14.3325 28.0791L14.4177 27.3849L14.4225 27.2838L14.4102 27.1756L14.3845 27.0734C14.3098 26.8426 14.1335 26.6689 13.9037 26.6072L13.1215 26.3948L13.4676 25.8628L13.5159 25.7672L13.5432 25.6632C13.5684 25.5285 13.5497 25.4092 13.4953 25.3036ZM11.8755 27.0055L11.6033 27.4798L12.6741 29.4493C12.7023 29.5006 12.724 29.5556 12.7395 29.6209L12.7582 29.7274L12.7611 29.8363L12.7225 30.4819L12.9272 30.4112C12.9641 30.3988 13.0238 30.3868 13.0769 30.3803L13.1477 30.375C13.4314 30.375 13.6794 30.5466 13.7925 30.8217L13.825 30.9171L13.8426 31.0199L14.07 33.4843C14.0804 33.5957 14.0645 33.7076 14.0171 33.8241L13.9756 33.9123L13.9124 34.0057L12.9045 35.2331L13.2426 35.5812L12.4145 36.9814L12.5396 37.0164L13.1576 36.3817L13.281 36.3043L13.3816 36.2748L13.4648 36.262L15.4752 36.102L16.2155 34.9505L16.1543 34.9721C15.9027 35.0404 15.6315 34.9565 15.4471 34.7503L15.3822 34.6673L15.3354 34.5815L15.1018 34.0577C15.0906 34.0323 15.0799 33.9999 15.0697 33.962L15.0546 33.901L15.0431 33.8327L14.8758 32.0639L13.6832 30.3016L13.6417 30.2765C13.4774 30.1691 13.3778 30.0636 13.3166 29.9438L13.2973 29.9L13.1296 29.9161L13.2688 27.9028L13.3017 27.5848L12.5677 27.3867L12.0972 27.2362L11.95 27.1341C11.9334 27.113 11.9184 27.0909 11.9053 27.0678L11.8755 27.0055ZM10.5639 30.3576C10.4254 30.149 10.2143 30.0275 9.98198 30.0275C9.93141 30.0275 9.84026 30.0403 9.79167 30.0546L8.21241 30.5306L8.11742 30.5683L8.02176 30.6253C7.93366 30.6857 7.86742 30.7564 7.81568 30.8383L7.15156 31.8916L7.10738 31.9721L7.07079 32.0641C7.0401 32.1546 7.02666 32.2409 7.02666 32.3285V33.8142L7.31672 34.0834L6.81664 35.3718L6.79693 35.3921L6.7499 35.4995C6.64442 35.7896 6.69762 36.1058 6.89055 36.3242L7.19926 36.6751L7.26463 36.74L7.35068 36.8036C7.46691 36.8787 7.58896 36.9145 7.71565 36.9145C7.85027 36.9145 7.98152 36.8734 8.09471 36.7973L10.3823 35.2545L10.4595 35.1936L10.5357 35.1108L10.5988 35.0213C10.693 34.8674 10.732 34.6903 10.7141 34.513L10.5822 33.3493L11.0095 32.3189L11.0461 32.2045L11.0658 32.0821C11.0774 31.9629 11.0655 31.8535 11.0325 31.7515L10.6576 30.5513L10.6186 30.4522L10.5639 30.3576ZM9.7221 31.2956L8.65372 31.6203L8.1156 32.4725L8.12435 33.1603L8.28457 33.1826C8.47657 33.2095 8.6347 33.3373 8.71311 33.5137L8.7417 33.5921L8.77247 33.6985L7.99835 35.4685L9.5891 34.3949L9.48197 33.3493C9.47101 33.245 9.4796 33.1399 9.50676 33.0414L9.54007 32.9453L9.93735 31.9834L9.7221 31.2956ZM23.2277 28.3294L23.639 28.1544L23.7046 29.3409L23.1463 30.6823L22.8602 29.8265L23.2277 28.3294ZM37.6206 1.27L41.2343 1.137L40.3643 2.01772L40.2972 2.09488C40.2153 2.20391 40.1647 2.33605 40.1539 2.47348L39.8584 5.94351L39.857 6.04978C39.8675 6.22566 39.9415 6.39313 40.0669 6.51983L40.9263 7.388L40.5542 9.78412L40.546 9.8736C40.5434 9.96329 40.5573 10.0531 40.587 10.1375L41.3516 12.3169L40.9313 13.5269L40.9069 13.6177C40.8885 13.7095 40.8878 13.8036 40.904 13.8953L41.3883 16.567L41.409 16.6523C41.4347 16.7364 41.4758 16.816 41.5304 16.8866L42.0857 17.6001L39.3548 21.234L37.6104 21.3015L37.5407 21.3094C37.489 21.3175 37.4314 21.3306 37.3966 21.3429L36.1383 21.7879L35.1093 20.9557L34.8775 18.0157L36.6141 15.9772L38.2816 13.918L38.3405 13.8339C38.4627 13.6294 38.4783 13.3728 38.3778 13.1517L37.3617 10.9566L37.3171 10.8748C37.1855 10.6662 36.955 10.5362 36.7052 10.5362C36.6662 10.5362 36.5947 10.5433 36.5563 10.5516L34.8859 10.8961L34.7916 10.9226C34.6081 10.9877 34.457 11.125 34.3741 11.3041L33.4597 13.3002L33.4354 13.3636C33.4191 13.4128 33.4042 13.471 33.399 13.5087L33.1625 15.2735L30.4761 17.345L30.3998 17.413C30.3049 17.5103 30.2384 17.6331 30.2085 17.7685L29.1947 22.4865L29.1798 22.5947C29.1683 22.775 29.2232 22.9532 29.3371 23.0967L29.403 23.1687C29.5417 23.3011 29.7232 23.3643 29.9509 23.3672L30.4298 23.3077L29.8505 23.4653L29.7554 23.4984C29.5107 23.6033 29.3397 23.8366 29.316 24.107L28.9292 28.7222L27.7891 29.3111L25.2589 23.0872L25.2165 22.9994C25.0892 22.7753 24.8513 22.6337 24.5883 22.6337L24.4896 22.6404C24.2305 22.6757 24.009 22.8486 23.9128 23.0976L23.2391 24.8521H21.7017L22.8162 20.6788L22.8351 20.5846C22.8603 20.3956 22.8108 20.2041 22.6941 20.0489C22.5561 19.8676 22.3422 19.7605 22.1173 19.7605L22.0445 19.7659C21.9897 19.7727 21.9276 19.7848 21.89 19.7969L21.0148 20.0947L20.9763 19.9513L23.0527 17.5686L26.1773 16.2916L26.2538 16.2534C26.4234 16.1517 26.5285 15.9668 26.5262 15.7644L26.5188 15.679C26.4868 15.4836 26.354 15.3171 26.1653 15.245L25.4817 14.9856L25.4677 14.9462L25.9961 14.6599L26.0739 14.6108C26.1726 14.5395 26.2515 14.4449 26.3038 14.3344L29.0711 8.54774L31.7222 4.67112L34.4708 2.98257L37.6206 1.27Z" fill="#74BF43"/>
</svg>
