<svg id="Layer_1" data-name="Layer 1" xmlns="http://www.w3.org/2000/svg" viewBox="0 0 136.56 52.71"><defs><style>.cls-1{fill:#003671;}.cls-2{fill:#7ab929;}.cls-3{fill:none;stroke:#273366;stroke-linecap:round;stroke-miterlimit:10;stroke-width:2px;}</style></defs><path class="cls-1" d="M573.09,304.81a1.5,1.5,0,0,1-1.5-1.5V264a1.5,1.5,0,0,1,3,0v39.31a1.5,1.5,0,0,1-1.5,1.5" transform="translate(-466.5 -261.85)"/><path class="cls-2" d="M595.36,287.93a12.8,12.8,0,0,1-6.67-1.88c-5.4-3.23-9.16-1.65-9.32-1.58a1.5,1.5,0,0,1-2-.76,1.48,1.48,0,0,1,.73-2c.21-.1,5.27-2.34,12.1,1.74a10.36,10.36,0,0,0,9.83.39V267.92a13.15,13.15,0,0,1-11.37-1.05c-5.49-3.29-9.27-1.62-9.31-1.6a1.5,1.5,0,1,1-1.25-2.72c.21-.1,5.27-2.34,12.1,1.74a10.48,10.48,0,0,0,10.53,0,1.5,1.5,0,0,1,2.3,1.27v19.19a1.48,1.48,0,0,1-.7,1.26,14,14,0,0,1-7,1.9" transform="translate(-466.5 -261.85)"/><path class="cls-1" d="M599.2,270a1,1,0,0,0-1.32-.5l-9,4-7.55-6.28a1,1,0,0,0-1.4.12,1,1,0,0,0,.12,1.41l6.8,5.67-8.06,3.64a1,1,0,0,0,.41,1.91.87.87,0,0,0,.41-.09l9-4,7.54,6.29a1,1,0,0,0,.64.23,1,1,0,0,0,.77-.36,1,1,0,0,0-.13-1.41l-6.8-5.66,8.07-3.65a1,1,0,0,0,.5-1.32" transform="translate(-466.5 -261.85)"/><path class="cls-1" d="M538.06,314.56a1.5,1.5,0,0,1-1.5-1.5V273.75a1.5,1.5,0,0,1,3,0v39.31a1.5,1.5,0,0,1-1.5,1.5" transform="translate(-466.5 -261.85)"/><path class="cls-2" d="M560.33,297.68a12.85,12.85,0,0,1-6.68-1.88c-5.39-3.23-9.15-1.65-9.31-1.58a1.52,1.52,0,0,1-2-.76,1.49,1.49,0,0,1,.74-2c.21-.1,5.27-2.35,12.1,1.74a10.39,10.39,0,0,0,9.83.39v-16a13.13,13.13,0,0,1-11.38-1.05c-5.48-3.28-9.26-1.61-9.3-1.59a1.5,1.5,0,1,1-1.25-2.72c.21-.1,5.27-2.35,12.1,1.74a10.56,10.56,0,0,0,10.53,0,1.5,1.5,0,0,1,2.3,1.27v19.18a1.49,1.49,0,0,1-.7,1.27,14,14,0,0,1-7,1.9" transform="translate(-466.5 -261.85)"/><path class="cls-1" d="M554.34,282.14a2.49,2.49,0,1,0,2.49,2.49,2.49,2.49,0,0,0-2.49-2.49m0,7a4.49,4.49,0,1,1,4.48-4.49,4.49,4.49,0,0,1-4.48,4.49" transform="translate(-466.5 -261.85)"/><path class="cls-1" d="M503,304.81a1.5,1.5,0,0,1-1.5-1.5V264a1.5,1.5,0,0,1,3,0v39.31a1.5,1.5,0,0,1-1.5,1.5" transform="translate(-466.5 -261.85)"/><path class="cls-2" d="M525.3,287.93a12.85,12.85,0,0,1-6.68-1.88c-5.4-3.23-9.16-1.65-9.32-1.58a1.5,1.5,0,0,1-1.24-2.73c.22-.1,5.28-2.34,12.1,1.74a10.38,10.38,0,0,0,9.84.39V267.92a13.17,13.17,0,0,1-11.38-1.05c-5.39-3.24-9.16-1.66-9.32-1.59a1.5,1.5,0,0,1-1.24-2.73c.22-.1,5.28-2.34,12.1,1.74a10.5,10.5,0,0,0,10.54,0,1.51,1.51,0,0,1,2.3,1.27v19.19a1.5,1.5,0,0,1-.7,1.26,14,14,0,0,1-7,1.9" transform="translate(-466.5 -261.85)"/><path class="cls-1" d="M514.77,279.72a1,1,0,0,1-1-1v-11a1,1,0,0,1,2,0v11a1,1,0,0,1-1,1" transform="translate(-466.5 -261.85)"/><path class="cls-1" d="M522.75,282.77a1,1,0,0,1-1-1v-11a1,1,0,1,1,2,0v11a1,1,0,0,1-1,1" transform="translate(-466.5 -261.85)"/><path class="cls-1" d="M468,314.56a1.5,1.5,0,0,1-1.5-1.5V273.75a1.5,1.5,0,0,1,3,0v39.31a1.5,1.5,0,0,1-1.5,1.5" transform="translate(-466.5 -261.85)"/><path class="cls-2" d="M490.27,297.68a12.83,12.83,0,0,1-6.68-1.88c-5.4-3.23-9.16-1.65-9.32-1.58a1.51,1.51,0,0,1-2-.76,1.48,1.48,0,0,1,.73-2c.21-.1,5.27-2.35,12.1,1.74a10.41,10.41,0,0,0,9.84.39v-16a13.13,13.13,0,0,1-11.38-1.05c-5.4-3.23-9.16-1.65-9.32-1.58a1.51,1.51,0,0,1-2-.76,1.48,1.48,0,0,1,.73-2c.21-.1,5.27-2.35,12.1,1.74a10.5,10.5,0,0,0,10.54,0,1.5,1.5,0,0,1,2.29,1.27v19.18a1.51,1.51,0,0,1-.69,1.27,14,14,0,0,1-7,1.9" transform="translate(-466.5 -261.85)"/><path class="cls-3" d="M483.56,279v11.1m-9.3-6.44s5.8-1.34,9.53.25,4.46,2.56,8.57,1.55" transform="translate(-466.5 -261.85)"/></svg>