<svg width="56" height="56" viewBox="0 0 56 56" fill="none" xmlns="http://www.w3.org/2000/svg">
<path fill-rule="evenodd" clip-rule="evenodd" d="M23.9112 14.7717V5.25H20.7144V14.7717C20.7144 14.7717 18.375 15.6235 18.375 17.0943V34.125H26.25V17.0943C26.25 15.6235 23.9112 14.7717 23.9112 14.7717Z" stroke="#74BF43" stroke-width="1.5"/>
<path d="M18.375 19.25H23.625V28H18.375" stroke="#74BF43" stroke-width="1.5"/>
<path d="M20.125 8.3125H23.625" stroke="#74BF43" stroke-width="1.5"/>
<path fill-rule="evenodd" clip-rule="evenodd" d="M35.2864 14.7717V5.25H32.0898V14.7717C32.0898 14.7717 29.75 15.6235 29.75 17.0943V34.125H37.625V17.0943C37.625 15.6235 35.2864 14.7717 35.2864 14.7717Z" stroke="#74BF43" stroke-width="1.5"/>
<path d="M29.75 19.25H35V28H29.75" stroke="#74BF43" stroke-width="1.5"/>
<path d="M31.5 8.3125H35" stroke="#74BF43" stroke-width="1.5"/>
<path fill-rule="evenodd" clip-rule="evenodd" d="M14 42.875H41.125V34.125H14V42.875Z" stroke="#74BF43" stroke-width="1.5"/>
<path fill-rule="evenodd" clip-rule="evenodd" d="M0.875 51.625H28V42.875H0.875V51.625Z" stroke="#74BF43" stroke-width="1.5"/>
<path fill-rule="evenodd" clip-rule="evenodd" d="M28 51.625H55.125V42.875H28V51.625Z" stroke="#74BF43" stroke-width="1.5"/>
</svg>
