<svg width="34" height="32" viewBox="0 0 34 32" fill="none" xmlns="http://www.w3.org/2000/svg">
<path fill-rule="evenodd" clip-rule="evenodd" d="M15.1847 17.1207C13.0887 17.1207 11.3895 19.1501 11.3895 21.6531V27.6662H22.7166V21.6531C22.7166 19.2103 21.0986 17.2191 19.0724 17.1242L15.1847 17.1207Z" stroke="#74BF43" stroke-linecap="round"/>
<path d="M23.7978 22.9176H32.9474V16.9046C32.9474 14.4618 31.3294 12.4705 29.3035 12.3757L25.4158 12.3722C23.3195 12.3722 21.6203 14.4016 21.6203 16.9046" stroke="#74BF43" stroke-linecap="round"/>
<path d="M10.2949 22.9176H1.14551V16.9046C1.14551 14.4618 2.76354 12.4705 4.78944 12.3757L8.67714 12.3722C10.7734 12.3722 12.4723 14.4016 12.4723 16.9046" stroke="#74BF43" stroke-linecap="round"/>
<path fill-rule="evenodd" clip-rule="evenodd" d="M27.2838 11.01V11.01C25.5814 11.01 24.2017 9.62989 24.2017 7.92749V7.22786C24.2017 5.52546 25.5814 4.14539 27.2838 4.14539C28.9862 4.14539 30.3663 5.52546 30.3663 7.22786V7.92749C30.3663 9.62989 28.9862 11.01 27.2838 11.01Z" stroke="#74BF43" stroke-linecap="round"/>
<path fill-rule="evenodd" clip-rule="evenodd" d="M6.82216 11.01V11.01C8.52456 11.01 9.90463 9.62989 9.90463 7.92749V7.22786C9.90463 5.52546 8.52456 4.14539 6.82216 4.14539C5.11976 4.14539 3.73969 5.52546 3.73969 7.22786V7.92749C3.73969 9.62989 5.11976 11.01 6.82216 11.01Z" stroke="#74BF43" stroke-linecap="round"/>
<path fill-rule="evenodd" clip-rule="evenodd" d="M17.0531 15.3181V15.3181C18.7555 15.3181 20.1353 13.938 20.1353 12.2359V11.536C20.1353 9.83356 18.7555 8.45349 17.0531 8.45349C15.3507 8.45349 13.9706 9.83356 13.9706 11.536V12.2359C13.9706 13.938 15.3507 15.3181 17.0531 15.3181Z" stroke="#74BF43" stroke-linecap="round"/>
</svg>
